<svg xmlns="http://www.w3.org/2000/svg" xmlns:svg="http://www.w3.org/2000/svg" id="svg18" width="102.338" height="136.182" version="1.1" viewBox="0 0 102.338 136.182"><metadata id="metadata24"/><title id="title2">Imported Layers</title><path style="fill:#636462;fill-rule:evenodd" id="path4" d="m 95.246,6.9636421 c 0.17,4.0139999 -2.912,7.4059999 -6.885,7.5779999 -3.97,0.172 -7.328,-2.942 -7.498,-6.9549999 -0.17,-4.014 2.91,-7.40699997 6.882,-7.57999997 3.97,-0.17 7.33,2.94399997 7.5,6.95699997"/><path style="fill:#e46e2e;fill-rule:evenodd" id="path6" d="m 51.168,104.33164 c -22.015,0 -41.187,-7.996998 -51.168,-19.809998 7.553,21.177998 27.61,36.319998 51.168,36.319998 23.56,0 43.616,-15.142 51.17,-36.319998 -9.982,11.813 -29.154,19.809998 -51.17,19.809998 m 0,-76.887998 c 22.016,0 41.188,7.995 51.17,19.81 -7.555,-21.182 -27.612,-36.322 -51.172,-36.322 -23.556,0 -43.613,15.14 -51.166,36.32 9.98,-11.815 29.153,-19.81 51.168,-19.81"/><path style="fill:#8a8b8a;fill-rule:evenodd" id="path8" d="m 23.023,127.05164 c 0.204,4.83 -3.505,8.914 -8.285,9.122 -4.78,0.207 -8.82,-3.542 -9.024,-8.372 -0.206,-4.83 3.503,-8.915 8.283,-9.122 4.78,-0.206 8.823,3.542 9.028,8.373"/><path style="fill:#4d4d4c;fill-rule:evenodd" id="path10" d="m 11.091,17.011642 c 0.126,2.943 -2.135,5.432 -5.047,5.557 -2.912,0.126 -5.374,-2.157 -5.5,-5.1 -0.125,-2.944 2.135,-5.433 5.048,-5.558 2.912,-0.128 5.374,2.155 5.5,5.1"/></svg>